<svg width="1440" height="10644" viewBox="0 0 1440 10644" fill="none" xmlns="http://www.w3.org/2000/svg">
<path d="M0 10644C378.897 10498.1 1242.17 10238 945.348 9300.53C871.304 9066.66 438.401 8799.06 786.629 8607.35C1290.28 8330.07 1402.81 7972.82 903.194 7765.34C434.012 7570.5 419.585 7360.16 0 7291V10644Z" fill="#F2F5FF"/>
<path d="M1440 5012C1226.62 5321.06 854.59 5008.07 615.872 5351.54C377.154 5695.02 196.883 5871.98 441.74 6358.4C833.842 7137.34 1278.41 6766.41 1440 6855.55V5012Z" fill="#FFCE84"/>
<path d="M1441.5 887.5C1227.5 1055 1043.02 803.599 846.48 1100.62C649.939 1397.65 501.519 1550.68 703.114 1971.32C1025.94 2644.91 1308.46 2294.41 1441.5 2371.5V887.5Z" fill="#F7F7F7"/>
<path d="M0 5397C378.897 5251.11 1055.93 4665.55 945.348 4053.53C891.5 3755.5 438.401 3552.06 786.629 3360.35C1290.28 3083.07 1402.81 2725.82 903.194 2518.34C434.012 2323.5 419.585 2113.16 0 2044V5397Z" fill="#EAE2FF"/>
<path d="M792.933 693.638C374.413 514.733 421.332 1071.15 -7.00003 857.284L-6.99988 0L1446 0.000254051L1446 502.606C1178.1 487.547 1253.78 890.635 792.933 693.638Z" fill="#F2F5FF"/>
</svg>
