<svg width="186" height="89" viewBox="0 0 186 89" fill="none" xmlns="http://www.w3.org/2000/svg">
<path d="M22.8511 31.694C22.8511 32.5744 22.0998 33.2661 21.2234 33.2661H20.7851C20.0965 33.2661 19.5956 33.0145 19.1574 32.3857L3.13029 5.66094V31.6311C3.13029 32.5115 2.44162 33.2661 1.56514 33.2661C0.688663 33.2661 0 32.5744 0 31.6311V1.76226C0 0.881917 0.751269 0.127335 1.62775 0.127335H2.1286C2.81726 0.127335 3.38071 0.378862 3.75635 1.07056L19.7208 27.4809V1.69938C19.7208 0.819035 20.4095 0.0644531 21.286 0.0644531C22.1624 0.0644531 22.8511 0.756153 22.8511 1.69938V31.694Z" fill="white"/>
<path d="M37.5634 18.5512V29.8701H52.1505C53.027 29.8701 53.7783 30.5619 53.7783 31.4422C53.7783 32.3226 53.0896 33.0143 52.1505 33.0143H36.0609C35.1844 33.0143 34.4331 32.2597 34.4331 31.3793V2.01289C34.4331 1.13253 35.1844 0.37793 36.0609 0.37793H51.6497C52.5262 0.37793 53.2774 1.06964 53.2774 1.95001C53.2774 2.83037 52.5888 3.52209 51.6497 3.52209H37.5634V15.4699H49.7089C50.5854 15.4699 51.3367 16.1616 51.3367 17.042C51.3367 17.9223 50.648 18.6141 49.7089 18.6141H37.5634V18.5512Z" fill="white"/>
<path d="M85.5195 21.947C85.5195 28.9272 80.2606 33.4549 74 33.4549C67.7395 33.4549 62.4806 28.9272 62.4806 21.947V1.76098C62.4806 0.880594 63.1693 0.125977 64.0457 0.125977C64.9222 0.125977 65.6109 0.817709 65.6109 1.76098V22.0099C65.6109 27.1036 69.4298 30.3736 74 30.3736C78.5703 30.3736 82.3892 27.1036 82.3892 22.0099V1.76098C82.3892 0.880594 83.0779 0.125977 83.9544 0.125977C84.8308 0.125977 85.5195 0.817709 85.5195 1.76098V21.947Z" fill="white"/>
<path d="M108.809 6.47748V29.9953C108.809 31.756 107.244 33.2023 105.366 33.2023C103.55 33.2023 101.922 31.6932 101.922 29.9953V6.47748H95.7242C94.2843 6.47748 92.907 5.0312 92.907 3.45915C92.907 1.76133 94.1591 0.37793 95.7242 0.37793H115.069C116.635 0.37793 117.887 1.76133 117.887 3.45915C117.887 5.0312 116.509 6.47748 115.069 6.47748H108.809Z" fill="white"/>
<path d="M138.359 0C147.624 0 154.887 7.48311 154.887 16.7898C154.887 25.9708 147.624 33.4539 138.359 33.4539C129.156 33.4539 121.893 25.9708 121.893 16.7898C121.893 7.48311 129.156 0 138.359 0ZM138.359 26.7254C143.868 26.7254 148 22.1978 148 16.7898C148 11.3819 143.868 6.72851 138.359 6.72851C132.849 6.72851 128.78 11.319 128.78 16.7898C128.78 22.2607 132.849 26.7254 138.359 26.7254Z" fill="white"/>
<path d="M175.296 18.2995V29.9954C175.296 31.7561 173.731 33.2024 171.853 33.2024C170.037 33.2024 168.41 31.6932 168.41 29.9954V18.2366L159.269 5.28298C158.393 3.89959 158.768 1.76162 160.208 0.755517C161.648 -0.250586 163.714 0.000939488 164.716 1.38433L171.853 12.5772L179.115 1.38433C179.992 0.000939488 182.12 -0.250586 183.623 0.755517C185.063 1.76162 185.438 3.89959 184.562 5.28298L175.296 18.2995Z" fill="white"/>
<path d="M19.0561 66.4643H16.1761L11.1121 77.3123L6.00005 66.4643H3.16805L1.12805 83.0003H4.53605L5.73605 72.7523L9.81605 81.1283H12.4321L16.4641 72.7523L17.6641 83.0003H21.0721L19.0561 66.4643Z" fill="white"/>
<path d="M28.9199 83.2883C32.1119 83.2883 34.9439 80.9363 34.9439 77.4083C34.9439 73.8563 32.1119 71.5043 28.9199 71.5043C25.7279 71.5043 22.8959 73.8563 22.8959 77.4083C22.8959 80.9363 25.7279 83.2883 28.9199 83.2883ZM28.9199 80.3603C27.3599 80.3603 26.0879 79.1363 26.0879 77.4083C26.0879 75.6563 27.3599 74.4323 28.9199 74.4323C30.4799 74.4323 31.7519 75.6563 31.7519 77.4083C31.7519 79.1363 30.4799 80.3603 28.9199 80.3603Z" fill="white"/>
<path d="M41.8182 78.9443L39.0822 71.7923H35.6742L40.4022 83.0003H43.2102L47.9382 71.7923H44.5062L41.8182 78.9443Z" fill="white"/>
<path d="M60.4617 77.2163C60.4617 73.7843 57.8457 71.5043 54.6297 71.5043C51.4377 71.5043 48.6777 73.7843 48.6777 77.4083C48.6777 80.8643 51.1977 83.2883 54.6537 83.2883C56.6217 83.2883 58.5657 82.4483 59.6217 81.0323L57.7977 79.1843C57.1017 79.9763 55.9977 80.5043 54.8457 80.5043C53.3577 80.5043 52.3017 79.7363 51.9657 78.4163H60.3897C60.4377 77.9123 60.4617 77.5283 60.4617 77.2163ZM51.9657 76.3763C52.3017 74.8643 53.4057 74.2163 54.7017 74.2163C56.1177 74.2163 57.1977 75.0563 57.2937 76.3763H51.9657Z" fill="white"/>
<path d="M64.4566 83.2163C65.5606 83.2163 66.4966 82.4003 66.4966 81.2723C66.4966 80.1683 65.5606 79.3523 64.4566 79.3523C63.3766 79.3523 62.4646 80.1683 62.4646 81.2723C62.4646 82.4003 63.3766 83.2163 64.4566 83.2163Z" fill="white"/>
<path d="M75.3754 66.4643V83.0003H78.7114V77.2163H82.1194C85.8634 77.2163 87.5194 74.5763 87.5194 71.8643C87.5194 69.1523 85.8634 66.4643 82.1194 66.4643H75.3754ZM78.7114 74.2883V69.4163H81.9994C83.5594 69.4163 84.1594 70.6643 84.1594 71.8643C84.1594 73.0403 83.5594 74.2883 81.9514 74.2883H78.7114Z" fill="white"/>
<path d="M92.8296 83.0003V65.6963H89.6856V83.0003H92.8296Z" fill="white"/>
<path d="M104.414 73.2803C103.67 72.1283 102.23 71.5043 100.79 71.5043C97.5743 71.5043 95.3183 73.9283 95.3183 77.4083C95.3183 80.8883 97.6223 83.2883 100.718 83.2883C102.23 83.2883 103.67 82.5443 104.414 81.3923V83.0003H107.558V71.7923H104.414V73.2803ZM101.414 80.3603C99.7583 80.3603 98.5343 78.9683 98.5343 77.4083C98.5343 75.7763 99.7583 74.4323 101.39 74.4323C102.95 74.4323 104.318 75.7043 104.318 77.4083C104.318 79.0163 102.998 80.3603 101.414 80.3603Z" fill="white"/>
<path d="M115.388 78.2723L112.748 71.7923H109.292L113.732 81.9443L111.068 88.4963H114.428L121.34 71.7923H117.956L115.388 78.2723Z" fill="white"/>
<path d="M123.425 83.2163C124.529 83.2163 125.465 82.4003 125.465 81.2723C125.465 80.1683 124.529 79.3523 123.425 79.3523C122.345 79.3523 121.433 80.1683 121.433 81.2723C121.433 82.4003 122.345 83.2163 123.425 83.2163Z" fill="white"/>
<path d="M144.568 66.4643H134.344V83.0003H137.68V76.3283H143.152V73.4003H137.68V69.4163H144.568V66.4643Z" fill="white"/>
<path d="M153.662 77.7203C153.662 79.7363 152.27 80.3603 151.142 80.3603C150.062 80.3603 149.006 79.5443 149.006 77.7923V71.7923H145.862V77.9603C145.838 81.3203 147.374 83.2883 150.302 83.2883C151.406 83.2883 153.182 82.6403 153.662 81.1763V83.0003H156.806V71.7923H153.662V77.7203Z" fill="white"/>
<path d="M166.479 71.5043C165.375 71.5043 163.599 72.1763 163.119 73.6883V71.7923H159.975V83.0003H163.119V77.1203C163.119 75.0803 164.511 74.4803 165.639 74.4803C166.719 74.4803 167.775 75.2723 167.775 77.0243V83.0003H170.919V76.8563C170.943 73.4963 169.407 71.5043 166.479 71.5043Z" fill="white"/>
</svg>
