<svg width="28" height="28" viewBox="0 0 28 28" fill="none" xmlns="http://www.w3.org/2000/svg">
<path d="M19.1545 2.30681C19.8972 2.30908 20.6319 2.46009 21.3153 2.75093C21.9987 3.04178 22.6168 3.46657 23.1334 4.00023C24.199 5.08644 24.7935 6.54902 24.7878 8.0707V19.6004C24.789 21.1215 24.1951 22.5828 23.1329 23.6717C22.6178 24.2072 21.9999 24.6332 21.3162 24.9242C20.6325 25.2152 19.8971 25.3651 19.1541 25.3651H7.88721C7.14452 25.3628 6.40982 25.2118 5.72645 24.921C5.04308 24.6301 4.42489 24.2053 3.90837 23.6717C2.84232 22.5853 2.2477 21.1224 2.25355 19.6004V8.0707C2.25232 6.54957 2.84625 5.08831 3.90837 3.99939C4.42354 3.46402 5.04149 3.03816 5.72517 2.74732C6.40886 2.45649 7.14423 2.30666 7.88721 2.30681H19.1545ZM19.1545 0H7.88721C3.54914 0 0 3.63176 0 8.0707V19.6004C0 24.0393 3.54914 27.6711 7.88721 27.6711H19.1545C23.4924 27.6711 27.0417 24.0393 27.0417 19.6004V8.0707C27.0417 3.63176 23.4926 0 19.1545 0Z" fill="white"/>
<path d="M20.9682 7.68437C20.6733 7.68437 20.3851 7.59694 20.14 7.43315C19.8949 7.26936 19.7038 7.03656 19.591 6.76418C19.4782 6.49181 19.4487 6.19209 19.5062 5.90294C19.5637 5.61379 19.7057 5.34819 19.9141 5.13972C20.1226 4.93125 20.3882 4.78928 20.6774 4.73177C20.9665 4.67425 21.2662 4.70377 21.5386 4.81659C21.811 4.92941 22.0438 5.12047 22.2076 5.3656C22.3714 5.61073 22.4588 5.89893 22.4588 6.19375C22.4593 6.38963 22.421 6.58368 22.3463 6.76474C22.2715 6.9458 22.1617 7.11031 22.0232 7.24882C21.8847 7.38733 21.7202 7.49711 21.5392 7.57186C21.3581 7.6466 21.164 7.68484 20.9682 7.68437Z" fill="white"/>
<path d="M13.5211 9.86166C14.3073 9.86166 15.0759 10.0948 15.7296 10.5316C16.3833 10.9684 16.8927 11.5892 17.1936 12.3155C17.4945 13.0419 17.5732 13.8411 17.4198 14.6122C17.2664 15.3833 16.8878 16.0916 16.3319 16.6475C15.776 17.2034 15.0677 17.582 14.2966 17.7354C13.5255 17.8888 12.7263 17.8101 11.9999 17.5092C11.2736 17.2083 10.6528 16.6988 10.216 16.0451C9.77921 15.3914 9.54607 14.6229 9.54607 13.8367C9.54707 12.7828 9.96619 11.7723 10.7114 11.027C11.4567 10.2818 12.4672 9.86266 13.5211 9.86166ZM13.5211 7.87402C12.3418 7.87398 11.189 8.22365 10.2084 8.87882C9.22779 9.53398 8.46351 10.4652 8.01217 11.5547C7.56084 12.6443 7.44273 13.8432 7.67278 14.9999C7.90282 16.1565 8.4707 17.219 9.30459 18.0529C10.1385 18.8868 11.2009 19.4547 12.3576 19.6848C13.5142 19.9149 14.7131 19.7968 15.8027 19.3455C16.8923 18.8943 17.8235 18.13 18.4787 17.1494C19.1339 16.1689 19.4836 15.016 19.4836 13.8367C19.4832 12.2555 18.8549 10.7391 17.7368 9.62096C16.6187 8.50283 15.1024 7.87447 13.5211 7.87402Z" fill="white"/>
</svg>
