<svg width="28" height="28" viewBox="0 0 28 28" fill="none" xmlns="http://www.w3.org/2000/svg">
<path d="M25.9999 0H1.99378C1.46189 0.00390508 0.95327 0.218633 0.579498 0.597077C0.205726 0.97552 -0.00267092 1.48677 2.58508e-05 2.01868V25.9813C-0.00267092 26.5132 0.205726 27.0245 0.579498 27.4029C0.95327 27.7814 1.46189 27.9961 1.99378 28H25.9999C26.5324 27.9963 27.0418 27.7819 27.4167 27.4036C27.7915 27.0252 28.0012 26.5139 28 25.9813V2.01868C28.0012 1.48612 27.7915 0.974754 27.4167 0.596444C27.0418 0.218135 26.5324 0.00368136 25.9999 0ZM8.4621 24H4.31252V10.6376H8.4697V24H8.4621ZM6.38752 8.81245C5.91172 8.81245 5.44661 8.67136 5.051 8.40702C4.65539 8.14268 4.34704 7.76696 4.16496 7.32737C3.98288 6.88779 3.93524 6.40408 4.02807 5.93742C4.12089 5.47077 4.35001 5.04211 4.68645 4.70567C5.02289 4.36923 5.45154 4.1401 5.91819 4.04728C6.38485 3.95446 6.86855 4.0021 7.30813 4.18418C7.74771 4.36626 8.12343 4.6746 8.38777 5.07022C8.65211 5.46583 8.7932 5.93095 8.7932 6.40675C8.79275 7.04465 8.53915 7.65629 8.0881 8.10734C7.63704 8.5584 7.02541 8.812 6.38752 8.81245ZM24.0186 24H19.8686V17.5004C19.8686 15.9504 19.8374 13.9566 17.7123 13.9566C15.5498 13.9566 15.2187 15.6448 15.2187 17.3879V24H11.0687V10.6376H15.0499V12.4626H15.1062C15.6625 11.4125 17.0187 10.3063 19.0374 10.3063C23.2368 10.3063 24.0175 13.075 24.0175 16.6751L24.0186 24Z" fill="white"/>
</svg>
