<svg width="40" height="28" viewBox="0 0 40 28" fill="none" xmlns="http://www.w3.org/2000/svg">
<path d="M39.1649 4.32349C38.9329 3.49143 38.4905 2.73337 37.8806 2.12257C37.2706 1.51178 36.5137 1.0689 35.6829 0.836735C32.5647 2.35964e-05 20.0174 2.35701e-05 20.0174 2.35701e-05C20.0174 2.35701e-05 7.50139 -0.0166474 4.35186 0.836735C3.52123 1.06902 2.76445 1.51196 2.15465 2.12275C1.54484 2.73353 1.10262 3.49153 0.870701 4.32349C0.27968 7.52062 -0.0117006 10.7661 0.00035952 14.0175C-0.00942371 17.2567 0.281948 20.4898 0.870701 23.6748C1.10262 24.5068 1.54484 25.2648 2.15465 25.8756C2.76445 26.4864 3.52123 26.9293 4.35186 27.1616C7.46621 28 20.0174 28 20.0174 28C20.0174 28 32.5321 28 35.6829 27.1616C36.5137 26.9294 37.2707 26.4865 37.8806 25.8757C38.4906 25.2648 38.9329 24.5067 39.1649 23.6746C39.7413 20.4884 40.0204 17.2554 39.9986 14.0173C40.0227 10.7671 39.7436 7.52171 39.1649 4.32349ZM16.0127 20.0142V8.00249L26.4563 14.0167L16.0127 20.0142Z" fill="white"/>
</svg>
