<svg width="136" height="134" viewBox="0 0 136 134" fill="none" xmlns="http://www.w3.org/2000/svg">
<path d="M67.5687 0.0006806C134.76 -0.16462 135.13 29.8021 135.13 66.5618C135.13 103.322 134.76 133.194 67.5687 133.131C0.157427 133.029 0 103.329 0 66.5618C0 29.7942 0.157427 0.165982 67.5687 0.0006806Z" fill="#406DFF"/>
<path d="M56.6746 31.7543C54.7426 31.7527 52.8657 32.3973 51.3423 33.5854C49.819 34.7736 48.7368 36.4371 48.2678 38.3112C48.1576 38.3112 48.0789 38.3112 47.9687 38.3112C45.6693 38.3174 43.4658 39.2331 41.8391 40.8583C40.2124 42.4835 39.2948 44.6862 39.2865 46.9856C39.2837 47.6249 39.3604 48.2621 39.5148 48.8826C38.2008 49.4116 37.0039 50.1944 35.9924 51.1861C34.981 52.1778 34.1749 53.359 33.6201 54.6624C33.0653 55.9657 32.7727 57.3655 32.759 58.782C32.7453 60.1984 33.0108 61.6036 33.5403 62.9174C33.6426 63.1772 33.7607 63.437 33.8867 63.7046C32.1219 64.7092 30.6748 66.1893 29.7104 67.9763C28.7459 69.7633 28.3029 71.7853 28.4317 73.8119C28.5605 75.8384 29.256 77.788 30.439 79.4385C31.6219 81.0891 33.2447 82.3741 35.1225 83.1471C34.8412 84.5654 34.8775 86.0285 35.2288 87.4311C35.5801 88.8337 36.2377 90.1411 37.1543 91.2594C38.0709 92.3777 39.2238 93.2792 40.5302 93.8989C41.8366 94.5187 43.264 94.8415 44.7099 94.8441C45.2568 94.8359 45.8019 94.7806 46.3393 94.6788C47.0745 96.8785 48.5684 98.7448 50.5536 99.9439C52.5388 101.143 54.886 101.597 57.175 101.224C59.4641 100.851 61.5458 99.6754 63.0477 97.9081C64.5496 96.1408 65.3737 93.8967 65.3725 91.5775V40.4601C65.3725 38.1526 64.4564 35.9394 62.8254 34.3069C61.1945 32.6745 58.9821 31.7564 56.6746 31.7543ZM106.714 73.0953C106.707 71.1816 106.194 69.3037 105.226 67.6528C104.258 66.0019 102.87 64.6369 101.203 63.6967C101.938 62.2302 102.326 60.6142 102.337 58.9738C102.337 56.815 101.695 54.7048 100.493 52.912C99.2898 51.1192 97.5809 49.7248 95.5833 48.9062C96.0996 46.6825 95.7169 44.3449 94.5184 42.402C93.3199 40.4591 91.4027 39.0681 89.1838 38.5316C88.5026 38.3733 87.805 38.2967 87.1057 38.3033C87.0034 38.3033 86.9089 38.3033 86.8066 38.3033C86.292 36.2495 85.0427 34.4554 83.2949 33.2603C81.5471 32.0651 79.422 31.5518 77.3214 31.8174C75.2208 32.083 73.2903 33.1091 71.895 34.7017C70.4997 36.2942 69.7363 38.3428 69.7491 40.4601V91.5853C69.7479 93.9046 70.572 96.1486 72.0739 97.9159C73.5758 99.6833 75.6575 100.859 77.9466 101.232C80.2357 101.605 82.5828 101.151 84.568 99.9518C86.5533 98.7527 88.0471 96.8864 88.7823 94.6867C89.3193 94.7901 89.8648 94.8429 90.4117 94.8441C91.6969 94.8462 92.9698 94.5949 94.1578 94.1045C95.3457 93.6141 96.4253 92.8943 97.3348 91.9863C98.2443 91.0782 98.9658 89.9998 99.4581 88.8127C99.9504 87.6255 100.204 86.3529 100.204 85.0678C100.204 84.4229 100.141 83.7796 100.015 83.1471C102.001 82.3218 103.699 80.9267 104.894 79.1379C106.089 77.349 106.728 75.2465 106.729 73.0953H106.714Z" fill="white"/>
</svg>
