<svg width="136" height="134" viewBox="0 0 136 134" fill="none" xmlns="http://www.w3.org/2000/svg">
<path d="M67.5687 0.0006806C134.76 -0.16462 135.13 29.8021 135.13 66.5618C135.13 103.322 134.76 133.194 67.5687 133.131C0.157427 133.029 0 103.329 0 66.5618C0 29.7942 0.157427 0.165982 67.5687 0.0006806Z" fill="#406DFF"/>
<path d="M84.0673 26.7636C83.3735 26.0779 82.4374 25.6933 81.4619 25.6931H39.5857C38.6149 25.694 37.684 26.0789 36.9959 26.7636C36.3081 27.4567 35.9207 28.3926 35.9175 29.3691V90.9319C35.9167 91.4146 36.0116 91.8928 36.1967 92.3386C36.3818 92.7845 36.6534 93.1892 36.9959 93.5295C37.3381 93.8715 37.7444 94.1428 38.1914 94.3278C38.6385 94.5128 39.1176 94.608 39.6014 94.6079H81.4698C81.9528 94.6105 82.4314 94.5164 82.8775 94.3312C83.3236 94.146 83.7282 93.8734 84.0673 93.5295C84.4098 93.1892 84.6815 92.7845 84.8666 92.3386C85.0517 91.8928 85.1466 91.4146 85.1457 90.9319V29.3927C85.1535 28.9043 85.0619 28.4194 84.8765 27.9674C84.6911 27.5155 84.4158 27.1059 84.0673 26.7636ZM60.4529 28.2592C60.6662 28.2592 60.8747 28.3225 61.052 28.441C61.2294 28.5595 61.3676 28.7279 61.4492 28.9249C61.5308 29.122 61.5522 29.3388 61.5106 29.548C61.469 29.7572 61.3663 29.9493 61.2155 30.1001C61.0646 30.251 60.8725 30.3537 60.6633 30.3953C60.4541 30.4369 60.2373 30.4155 60.0402 30.3339C59.8432 30.2523 59.6748 30.1141 59.5563 29.9367C59.4378 29.7594 59.3745 29.5509 59.3745 29.3376C59.3847 29.0557 59.5033 28.7885 59.7058 28.592C59.9082 28.3954 60.1787 28.2847 60.4608 28.2828L60.4529 28.2592ZM60.5159 93.0808C60.0881 93.0792 59.6704 92.951 59.3154 92.7122C58.9605 92.4734 58.6843 92.1348 58.5216 91.7391C58.359 91.3434 58.3173 90.9084 58.4017 90.489C58.4861 90.0696 58.6929 89.6847 58.9959 89.3827C59.299 89.0808 59.6847 88.8754 60.1044 88.7925C60.524 88.7096 60.9589 88.753 61.354 88.917C61.749 89.0811 62.0866 89.3585 62.3242 89.7143C62.5617 90.0701 62.6884 90.4883 62.6884 90.9161C62.6763 91.4878 62.4433 92.0325 62.0382 92.4361C61.6332 92.8397 61.0876 93.0707 60.5159 93.0808ZM82.6505 87.2559H38.3656V33.1002H82.6505V87.2559Z" fill="white"/>
<path d="M77.2743 51.9524H94.7805C95.3595 51.9482 95.9335 52.0591 96.4693 52.2788C97.005 52.4984 97.4917 52.8224 97.9012 53.2318C98.3106 53.6413 98.6346 54.128 98.8542 54.6637C99.0738 55.1995 99.1848 55.7735 99.1806 56.3525V102.33C99.1816 102.905 99.0691 103.474 98.8496 104.006C98.63 104.537 98.3077 105.02 97.9011 105.427C97.4945 105.833 97.0116 106.156 96.4801 106.375C95.9487 106.595 95.3791 106.707 94.8041 106.706H77.2743C76.6993 106.707 76.1297 106.595 75.5982 106.375C75.0668 106.156 74.5839 105.833 74.1773 105.427C73.7707 105.02 73.4484 104.537 73.2288 104.006C73.0092 103.474 72.8967 102.905 72.8978 102.33V56.3525C72.8936 55.7755 73.0038 55.2034 73.222 54.6692C73.4401 54.135 73.762 53.6494 74.1689 53.2403C74.5758 52.8311 75.0597 52.5067 75.5928 52.2856C76.1258 52.0646 76.6973 51.9513 77.2743 51.9524Z" fill="#406DFF"/>
<path d="M95.4023 50.0632H74.9365C73.8126 50.0674 72.7363 50.5173 71.9438 51.3142C71.1513 52.1112 70.7074 53.1899 70.7095 54.3138V103.408C70.7009 104.553 71.1426 105.655 71.9393 106.476C72.7359 107.298 73.8237 107.774 74.9679 107.8H95.4338C95.9951 107.785 96.548 107.659 97.0607 107.43C97.5735 107.201 98.036 106.873 98.422 106.466C98.808 106.058 99.1098 105.578 99.3102 105.053C99.5106 104.529 99.6056 103.97 99.5899 103.408V54.3138C99.6174 53.2191 99.2092 52.1581 98.455 51.3641C97.7008 50.57 96.6623 50.1078 95.5676 50.079L95.4023 50.0632ZM83.2015 53.0308H87.0664C87.1338 53.0265 87.2015 53.0359 87.2652 53.0583C87.329 53.0807 87.3876 53.1157 87.4375 53.1613C87.4875 53.2068 87.5277 53.2619 87.5559 53.3234C87.5841 53.3848 87.5997 53.4513 87.6017 53.5188C87.6059 53.5867 87.5966 53.6547 87.5743 53.7189C87.5519 53.7831 87.517 53.8422 87.4716 53.8928C87.4262 53.9433 87.3711 53.9843 87.3096 54.0134C87.2482 54.0424 87.1815 54.0589 87.1136 54.0619H83.1779C83.0414 54.0662 82.9087 54.0166 82.8085 53.9238C82.7084 53.831 82.6488 53.7025 82.6426 53.566C82.6384 53.4986 82.6477 53.431 82.6702 53.3672C82.6926 53.3035 82.7276 53.2449 82.7731 53.1949C82.8187 53.145 82.8738 53.1047 82.9352 53.0765C82.9966 53.0483 83.0631 53.0328 83.1307 53.0308H83.2015ZM85.2009 105.84C84.7568 105.842 84.3223 105.712 83.9524 105.466C83.5824 105.221 83.2936 104.871 83.1226 104.461C82.9516 104.051 82.9061 103.6 82.9918 103.164C83.0774 102.729 83.2905 102.328 83.6039 102.014C83.9173 101.699 84.317 101.485 84.7524 101.397C85.1878 101.31 85.6393 101.354 86.0497 101.524C86.46 101.693 86.8109 101.981 87.0577 102.35C87.3046 102.719 87.4363 103.153 87.4364 103.597C87.4364 104.191 87.2011 104.76 86.7821 105.181C86.3631 105.601 85.7945 105.838 85.2009 105.84ZM97.2442 99.5433H73.0237C72.9899 99.5433 72.9565 99.5366 72.9254 99.5234C72.8944 99.5103 72.8662 99.491 72.8427 99.4668C72.8192 99.4425 72.8008 99.4138 72.7887 99.3824C72.7765 99.3509 72.7707 99.3173 72.7718 99.2835V56.8957C72.7707 56.8619 72.7765 56.8283 72.7887 56.7969C72.8008 56.7654 72.8192 56.7367 72.8427 56.7125C72.8662 56.6882 72.8944 56.669 72.9254 56.6558C72.9565 56.6427 72.9899 56.6359 73.0237 56.6359H97.2442C97.3125 56.6379 97.3774 56.6659 97.4257 56.7142C97.474 56.7625 97.502 56.8274 97.504 56.8957V99.2678C97.502 99.3361 97.474 99.401 97.4257 99.4493C97.3774 99.4976 97.3125 99.5256 97.2442 99.5276V99.5433Z" fill="white"/>
</svg>
