<svg width="136" height="134" viewBox="0 0 136 134" fill="none" xmlns="http://www.w3.org/2000/svg">
<path d="M67.5687 0.0006806C134.76 -0.16462 135.13 29.8021 135.13 66.5618C135.13 103.322 134.76 133.194 67.5687 133.131C0.157427 133.029 0 103.329 0 66.5618C0 29.7942 0.157427 0.165982 67.5687 0.0006806Z" fill="#406DFF"/>
<path d="M53.951 99.7715C50.3407 99.7695 46.8791 98.3338 44.327 95.7802C41.7749 93.2267 40.3412 89.7641 40.3412 86.1539V65.3811C40.3412 61.7763 38.9119 58.3185 36.3666 55.7658C33.8213 53.2132 30.3677 51.7738 26.7629 51.7634V51.7634" stroke="white" stroke-width="5" stroke-miterlimit="10" stroke-linecap="round"/>
<path d="M108.406 99.7716C106.618 99.7716 104.848 99.4193 103.196 98.7349C101.544 98.0504 100.043 97.0472 98.7795 95.7826C97.5157 94.518 96.5133 93.0167 95.8298 91.3646C95.1463 89.7125 94.7951 87.9419 94.7961 86.1539V78.4242C94.794 74.8132 93.3587 71.3507 90.8053 68.7973C88.2519 66.244 84.7895 64.8086 81.1785 64.8065V64.8065C77.5682 64.8086 74.1065 66.2442 71.5544 68.7978C69.0023 71.3514 67.5687 74.8139 67.5687 78.4242V86.1618C67.5666 89.7721 66.131 93.2338 63.5774 95.7859C61.0238 98.338 57.5613 99.7716 53.951 99.7716V99.7716" stroke="white" stroke-width="5" stroke-miterlimit="10" stroke-linecap="round"/>
<path d="M81.3044 48.6227C85.5213 48.6227 88.9397 45.2043 88.9397 40.9874C88.9397 36.7705 85.5213 33.3521 81.3044 33.3521C77.0875 33.3521 73.6691 36.7705 73.6691 40.9874C73.6691 45.2043 77.0875 48.6227 81.3044 48.6227Z" stroke="white" stroke-width="5" stroke-miterlimit="10"/>
</svg>
