<svg width="136" height="134" viewBox="0 0 136 134" fill="none" xmlns="http://www.w3.org/2000/svg">
<path d="M67.5687 0.0006806C134.76 -0.16462 135.13 29.8021 135.13 66.5618C135.13 103.322 134.76 133.194 67.5687 133.131C0.157427 133.029 0 103.329 0 66.5618C0 29.7942 0.157427 0.165982 67.5687 0.0006806Z" fill="#406DFF"/>
<path d="M76.5738 33.5253C76.5738 35.3079 76.0452 37.0504 75.0548 38.5326C74.0645 40.0147 72.6569 41.1699 71.01 41.8521C69.3631 42.5342 67.5509 42.7127 65.8026 42.3649C64.0543 42.0172 62.4484 41.1588 61.1879 39.8983C59.9274 38.6379 59.069 37.0319 58.7213 35.2836C58.3735 33.5353 58.552 31.7231 59.2342 30.0762C59.9163 28.4293 61.0715 27.0217 62.5537 26.0314C64.0358 25.041 65.7784 24.5125 67.5609 24.5125C68.7445 24.5125 69.9165 24.7456 71.01 25.1985C72.1035 25.6514 73.0971 26.3153 73.934 27.1522C74.7709 27.9892 75.4348 28.9827 75.8877 30.0762C76.3407 31.1697 76.5738 32.3417 76.5738 33.5253Z" fill="white"/>
<path d="M99.0941 45.5292H36.0436C35.4359 45.5038 34.8294 45.6016 34.2606 45.8166C33.6917 46.0316 33.1721 46.3594 32.7332 46.7804C32.2943 47.2014 31.945 47.7067 31.7064 48.2662C31.4678 48.8256 31.3448 49.4275 31.3448 50.0356C31.3448 50.6438 31.4678 51.2457 31.7064 51.8051C31.945 52.3645 32.2943 52.8699 32.7332 53.2908C33.1721 53.7118 33.6917 54.0397 34.2606 54.2547C34.8294 54.4697 35.4359 54.5674 36.0436 54.542H54.5258C55.2572 54.6435 55.9461 54.9459 56.5159 55.4157C57.0857 55.8854 57.514 56.504 57.7531 57.2026C58.6347 59.4775 58.2018 63.4998 57.6586 66.9081L56.9423 70.9226C56.9472 70.931 56.9497 70.9405 56.9497 70.9501C56.9497 70.9598 56.9472 70.9693 56.9423 70.9777L51.2355 103.29C51.1324 103.873 51.1452 104.47 51.2729 105.047C51.4007 105.625 51.6411 106.172 51.9803 106.656C52.3195 107.141 52.7508 107.554 53.2497 107.872C53.7486 108.19 54.3053 108.406 54.8879 108.509C55.4642 108.612 56.0552 108.601 56.6271 108.475C57.199 108.35 57.7406 108.113 58.2209 107.778C58.7012 107.443 59.1108 107.017 59.4263 106.524C59.7417 106.031 59.9569 105.48 60.0594 104.904V104.849L63.9952 82.352C63.9952 82.352 65.1602 76.2516 67.4665 76.2516H67.6948C70.0562 76.2516 71.1661 82.352 71.1661 82.352L75.1018 104.849C75.3296 105.993 75.9938 107.005 76.954 107.669C77.9141 108.332 79.0949 108.597 80.2464 108.406C81.3979 108.214 82.4299 107.583 83.1239 106.644C83.818 105.705 84.1196 104.534 83.9651 103.377V103.274L78.2189 70.9698C78.2238 70.9614 78.2263 70.9519 78.2263 70.9423C78.2263 70.9326 78.2238 70.9231 78.2189 70.9147L77.5105 66.9003C76.9595 63.5076 76.5344 59.4696 77.416 57.2026C77.6483 56.4992 78.0744 55.8756 78.6453 55.4035C79.2163 54.9315 79.9088 54.6301 80.6433 54.5342H99.1098C99.7011 54.5342 100.287 54.4177 100.833 54.1914C101.379 53.9652 101.875 53.6335 102.294 53.2154C102.712 52.7973 103.043 52.301 103.27 51.7547C103.496 51.2084 103.612 50.623 103.612 50.0317C103.612 49.4404 103.496 48.8549 103.27 48.3087C103.043 47.7624 102.712 47.266 102.294 46.848C101.875 46.4299 101.379 46.0982 100.833 45.8719C100.287 45.6457 99.7011 45.5292 99.1098 45.5292H99.0941Z" fill="white"/>
<path d="M76.5738 33.5253C76.5738 35.3079 76.0452 37.0504 75.0548 38.5326C74.0645 40.0147 72.6569 41.1699 71.01 41.8521C69.3631 42.5342 67.5509 42.7127 65.8026 42.3649C64.0543 42.0172 62.4484 41.1588 61.1879 39.8983C59.9274 38.6379 59.069 37.0319 58.7213 35.2836C58.3735 33.5353 58.552 31.7231 59.2342 30.0762C59.9163 28.4293 61.0715 27.0217 62.5537 26.0314C64.0358 25.041 65.7784 24.5125 67.5609 24.5125C68.7445 24.5125 69.9165 24.7456 71.01 25.1985C72.1035 25.6514 73.0971 26.3153 73.934 27.1522C74.7709 27.9892 75.4348 28.9827 75.8877 30.0762C76.3407 31.1697 76.5738 32.3417 76.5738 33.5253Z" fill="white"/>
<path d="M99.0941 45.5292H36.0436C35.4359 45.5038 34.8294 45.6016 34.2606 45.8166C33.6917 46.0316 33.1721 46.3594 32.7332 46.7804C32.2943 47.2014 31.945 47.7067 31.7064 48.2662C31.4678 48.8256 31.3448 49.4275 31.3448 50.0356C31.3448 50.6438 31.4678 51.2457 31.7064 51.8051C31.945 52.3645 32.2943 52.8699 32.7332 53.2908C33.1721 53.7118 33.6917 54.0397 34.2606 54.2547C34.8294 54.4697 35.4359 54.5674 36.0436 54.542H54.5258C55.2572 54.6435 55.9461 54.9459 56.5159 55.4157C57.0857 55.8854 57.514 56.504 57.7531 57.2026C58.6347 59.4775 58.2018 63.4998 57.6586 66.9081L56.9423 70.9226C56.9472 70.931 56.9497 70.9405 56.9497 70.9501C56.9497 70.9598 56.9472 70.9693 56.9423 70.9777L51.2355 103.29C51.1324 103.873 51.1452 104.47 51.2729 105.047C51.4007 105.625 51.6411 106.172 51.9803 106.656C52.3195 107.141 52.7508 107.554 53.2497 107.872C53.7486 108.19 54.3053 108.406 54.8879 108.509C55.4642 108.612 56.0552 108.601 56.6271 108.475C57.199 108.35 57.7406 108.113 58.2209 107.778C58.7012 107.443 59.1108 107.017 59.4263 106.524C59.7417 106.031 59.9569 105.48 60.0594 104.904V104.849L63.9952 82.352C63.9952 82.352 65.1602 76.2516 67.4665 76.2516H67.6948C70.0562 76.2516 71.1661 82.352 71.1661 82.352L75.1018 104.849C75.3296 105.993 75.9938 107.005 76.954 107.669C77.9141 108.332 79.0949 108.597 80.2464 108.406C81.3979 108.214 82.4299 107.583 83.1239 106.644C83.818 105.705 84.1196 104.534 83.9651 103.377V103.274L78.2189 70.9698C78.2238 70.9614 78.2263 70.9519 78.2263 70.9423C78.2263 70.9326 78.2238 70.9231 78.2189 70.9147L77.5105 66.9003C76.9595 63.5076 76.5344 59.4696 77.416 57.2026C77.6483 56.4992 78.0744 55.8756 78.6453 55.4035C79.2163 54.9315 79.9088 54.6301 80.6433 54.5342H99.1098C99.7011 54.5342 100.287 54.4177 100.833 54.1914C101.379 53.9652 101.875 53.6335 102.294 53.2154C102.712 52.7973 103.043 52.301 103.27 51.7547C103.496 51.2084 103.612 50.623 103.612 50.0317C103.612 49.4404 103.496 48.8549 103.27 48.3087C103.043 47.7624 102.712 47.266 102.294 46.848C101.875 46.4299 101.379 46.0982 100.833 45.8719C100.287 45.6457 99.7011 45.5292 99.1098 45.5292H99.0941Z" fill="white"/>
</svg>
