<svg width="156" height="27" viewBox="0 0 156 27" fill="none" xmlns="http://www.w3.org/2000/svg">
<path d="M19.1455 25.3882C19.1455 26.0934 18.5161 26.6475 17.7817 26.6475H17.4145C16.8376 26.6475 16.4179 26.446 16.0508 25.9423L2.62267 4.53429V25.3378C2.62267 26.043 2.04568 26.6475 1.31134 26.6475C0.576988 26.6475 0 26.0934 0 25.3378V1.41124C0 0.706033 0.629441 0.101573 1.36379 0.101573H1.78342C2.36041 0.101573 2.83249 0.30306 3.14721 0.857149L16.5228 22.0133V1.36087C16.5228 0.655662 17.0998 0.0512009 17.8342 0.0512009C18.5685 0.0512009 19.1455 0.60529 19.1455 1.36087V25.3882Z" fill="white"/>
<path d="M31.472 14.8597V23.9266H43.6937C44.4281 23.9266 45.0575 24.4807 45.0575 25.1859C45.0575 25.8911 44.4805 26.4451 43.6937 26.4451H30.2132C29.4788 26.4451 28.8494 25.8407 28.8494 25.1355V1.6119C28.8494 0.906691 29.4788 0.302231 30.2132 0.302231H43.2741C44.0084 0.302231 44.6379 0.85632 44.6379 1.56152C44.6379 2.26673 44.0609 2.82082 43.2741 2.82082H31.472V12.3914H41.648C42.3824 12.3914 43.0118 12.9455 43.0118 13.6507C43.0118 14.3559 42.4348 14.91 41.648 14.91H31.472V14.8597Z" fill="white"/>
<path d="M71.6514 17.5797C71.6514 23.171 67.2453 26.7978 61.9999 26.7978C56.7546 26.7978 52.3485 23.171 52.3485 17.5797V1.41041C52.3485 0.705207 52.9255 0.100746 53.6598 0.100746C54.3942 0.100746 54.9712 0.654835 54.9712 1.41041V17.6301C54.9712 21.7102 58.1708 24.3295 61.9999 24.3295C65.829 24.3295 69.0287 21.7102 69.0287 17.6301V1.41041C69.0287 0.705207 69.6057 0.100746 70.34 0.100746C71.0744 0.100746 71.6514 0.654835 71.6514 1.41041V17.5797Z" fill="white"/>
<path d="M91.1641 5.18829V24.0273C91.1641 25.4377 89.8528 26.5963 88.2792 26.5963C86.758 26.5963 85.3942 25.3873 85.3942 24.0273V5.18829H80.2013C78.9949 5.18829 77.8409 4.02974 77.8409 2.77044C77.8409 1.41041 78.89 0.302231 80.2013 0.302231H96.4095C97.7208 0.302231 98.7699 1.41041 98.7699 2.77044C98.7699 4.02974 97.6159 5.18829 96.4095 5.18829H91.1641Z" fill="white"/>
<path d="M115.922 0C123.685 0 129.77 5.99423 129.77 13.4492C129.77 20.8035 123.685 26.7978 115.922 26.7978C108.212 26.7978 102.127 20.8035 102.127 13.4492C102.127 5.99423 108.212 0 115.922 0ZM115.922 21.408C120.538 21.408 124 17.7812 124 13.4492C124 9.11728 120.538 5.38977 115.922 5.38977C111.306 5.38977 107.897 9.06691 107.897 13.4492C107.897 17.8316 111.306 21.408 115.922 21.408Z" fill="white"/>
<path d="M146.87 14.6582V24.0273C146.87 25.4377 145.558 26.5963 143.985 26.5963C142.464 26.5963 141.1 25.3873 141.1 24.0273V14.6078L133.442 4.23122C132.707 3.12305 133.022 1.41041 134.228 0.60446C135.435 -0.201487 137.166 -4.58921e-07 138.005 1.10818L143.985 10.0743L150.069 1.10818C150.804 -4.58921e-07 152.587 -0.201487 153.846 0.60446C155.052 1.41041 155.367 3.12305 154.633 4.23122L146.87 14.6582Z" fill="white"/>
</svg>
